<svg width="16" height="16" viewBox="0 0 16 16" fill="none" xmlns="http://www.w3.org/2000/svg">
<path d="M0 5.28571V0.857143C0 0.382143 0.382143 0 0.857143 0H5.28571C5.52143 0 5.71429 0.192857 5.71429 0.428571V1.85714C5.71429 2.09286 5.52143 2.28571 5.28571 2.28571H2.28571V5.28571C2.28571 5.52143 2.09286 5.71429 1.85714 5.71429H0.428571C0.192857 5.71429 0 5.52143 0 5.28571ZM10.2857 0.428571V1.85714C10.2857 2.09286 10.4786 2.28571 10.7143 2.28571H13.7143V5.28571C13.7143 5.52143 13.9071 5.71429 14.1429 5.71429H15.5714C15.8071 5.71429 16 5.52143 16 5.28571V0.857143C16 0.382143 15.6179 0 15.1429 0H10.7143C10.4786 0 10.2857 0.192857 10.2857 0.428571ZM15.5714 10.2857H14.1429C13.9071 10.2857 13.7143 10.4786 13.7143 10.7143V13.7143H10.7143C10.4786 13.7143 10.2857 13.9071 10.2857 14.1429V15.5714C10.2857 15.8071 10.4786 16 10.7143 16H15.1429C15.6179 16 16 15.6179 16 15.1429V10.7143C16 10.4786 15.8071 10.2857 15.5714 10.2857ZM5.71429 15.5714V14.1429C5.71429 13.9071 5.52143 13.7143 5.28571 13.7143H2.28571V10.7143C2.28571 10.4786 2.09286 10.2857 1.85714 10.2857H0.428571C0.192857 10.2857 0 10.4786 0 10.7143V15.1429C0 15.6179 0.382143 16 0.857143 16H5.28571C5.52143 16 5.71429 15.8071 5.71429 15.5714Z" fill="black"/>
</svg>
