<svg width="16" height="13" viewBox="0 0 16 13" fill="none" xmlns="http://www.w3.org/2000/svg">
<path fill-rule="evenodd" clip-rule="evenodd" d="M7.66446 0.0695917C7.83149 0.138844 7.97423 0.256066 8.07464 0.406437C8.17505 0.556809 8.22862 0.733577 8.22857 0.914392V11.8858C8.22853 12.0666 8.17489 12.2434 8.07442 12.3937C7.97396 12.544 7.83118 12.6611 7.66414 12.7303C7.4971 12.7995 7.3133 12.8176 7.13597 12.7824C6.95864 12.7471 6.79575 12.66 6.66789 12.5322L3.27863 9.14296H0.914286C0.671802 9.14296 0.43925 9.04664 0.267788 8.87518C0.0963262 8.70371 0 8.47116 0 8.22868V4.57153C0 4.32905 0.0963262 4.0965 0.267788 3.92504C0.43925 3.75358 0.671802 3.65725 0.914286 3.65725H3.27863L6.66789 0.267992C6.79574 0.140053 6.95868 0.0529134 7.13607 0.0175973C7.31347 -0.0177188 7.49735 0.00037585 7.66446 0.0695917Z" fill="black"/>
<path fill-rule="evenodd" clip-rule="evenodd" d="M10.3251 3.92194C10.4965 3.75054 10.729 3.65425 10.9715 3.65425C11.2139 3.65425 11.4464 3.75054 11.6179 3.92194L12.8 5.10411L13.9822 3.92194C14.0665 3.83462 14.1674 3.76497 14.279 3.71705C14.3905 3.66913 14.5105 3.64391 14.6319 3.64286C14.7533 3.6418 14.8737 3.66493 14.986 3.71091C15.0984 3.75688 15.2005 3.82477 15.2863 3.91061C15.3722 3.99645 15.4401 4.09854 15.486 4.2109C15.532 4.32326 15.5551 4.44365 15.5541 4.56505C15.553 4.68645 15.5278 4.80642 15.4799 4.91797C15.432 5.02952 15.3623 5.1304 15.275 5.21474L14.0928 6.39691L15.275 7.57909C15.4416 7.75152 15.5337 7.98247 15.5316 8.2222C15.5295 8.46192 15.4334 8.69123 15.2639 8.86075C15.0944 9.03026 14.865 9.12642 14.6253 9.1285C14.3856 9.13058 14.1546 9.03843 13.9822 8.87189L12.8 7.68971L11.6179 8.87189C11.4454 9.03843 11.2145 9.13058 10.9748 9.1285C10.735 9.12642 10.5057 9.03026 10.3362 8.86075C10.1667 8.69123 10.0705 8.46192 10.0684 8.2222C10.0664 7.98247 10.1585 7.75152 10.3251 7.57909L11.5072 6.39691L10.3251 5.21474C10.1537 5.04329 10.0574 4.81078 10.0574 4.56834C10.0574 4.32591 10.1537 4.0934 10.3251 3.92194Z" fill="black"/>
</svg>
