<svg width="16" height="16" viewBox="0 0 16 16" fill="none" xmlns="http://www.w3.org/2000/svg">
<path d="M9.10096 15.617H6.32763C6.15386 15.617 5.98531 15.5577 5.84992 15.4487C5.71453 15.3398 5.62043 15.1879 5.58325 15.0181L5.27315 13.5827C4.85948 13.4015 4.46724 13.1748 4.10363 12.9069L2.70401 13.3526C2.53834 13.4054 2.35959 13.4 2.19744 13.3372C2.03528 13.2745 1.89948 13.1581 1.81258 13.0075L0.422868 10.6067C0.336883 10.456 0.304607 10.2805 0.331319 10.109C0.358031 9.93752 0.442151 9.78018 0.569915 9.66272L1.65563 8.67224C1.60626 8.22356 1.60626 7.77082 1.65563 7.32214L0.569915 6.33395C0.44197 6.21645 0.357736 6.05896 0.331019 5.88731C0.304303 5.71566 0.336688 5.54003 0.422868 5.38919L1.80953 2.98691C1.89643 2.83629 2.03223 2.71993 2.19439 2.65714C2.35654 2.59436 2.5353 2.58893 2.70096 2.64176L4.10058 3.08748C4.28649 2.95033 4.48001 2.82233 4.67963 2.70653C4.87239 2.59833 5.07049 2.50005 5.27315 2.41243L5.58401 0.978525C5.62102 0.808771 5.71493 0.656764 5.85018 0.547705C5.98543 0.438647 6.15389 0.379089 6.32763 0.378906H9.10096C9.2747 0.379089 9.44316 0.438647 9.57841 0.547705C9.71366 0.656764 9.80758 0.808771 9.84458 0.978525L10.1585 2.41319C10.3718 2.50767 10.5806 2.61357 10.7825 2.73167C10.9707 2.84062 11.1528 2.96024 11.328 3.089L12.7284 2.64329C12.894 2.59065 13.0725 2.59618 13.2345 2.65895C13.3965 2.72173 13.5322 2.83798 13.6191 2.98843L15.0057 5.39072C15.1825 5.70081 15.1215 6.09319 14.8587 6.33472L13.773 7.32519C13.8223 7.77387 13.8223 8.22661 13.773 8.67529L14.8587 9.66576C15.1215 9.90805 15.1825 10.2997 15.0057 10.6098L13.6191 13.012C13.5322 13.1627 13.3964 13.279 13.2342 13.3418C13.072 13.4046 12.8933 13.41 12.7276 13.3572L11.328 12.9115C10.9647 13.1792 10.5727 13.4056 10.1592 13.5865L9.84458 15.0181C9.80742 15.1878 9.71345 15.3396 9.57821 15.4485C9.44298 15.5574 9.2746 15.6169 9.10096 15.617ZM7.71125 4.95033C6.90297 4.95033 6.1278 5.27142 5.55626 5.84296C4.98472 6.4145 4.66363 7.18967 4.66363 7.99795C4.66363 8.80623 4.98472 9.58141 5.55626 10.1529C6.1278 10.7245 6.90297 11.0456 7.71125 11.0456C8.51953 11.0456 9.2947 10.7245 9.86624 10.1529C10.4378 9.58141 10.7589 8.80623 10.7589 7.99795C10.7589 7.18967 10.4378 6.4145 9.86624 5.84296C9.2947 5.27142 8.51953 4.95033 7.71125 4.95033Z" fill="black"/>
</svg>
